<svg viewBox="0 0 120 40" xmlns="http://www.w3.org/2000/svg">
  <path d="M60 8 C55 8, 42 14, 38 22 C34 30, 40 36, 52 36 C56 36, 58 34, 60 30" fill="none" stroke="#E7DEC8" stroke-width="1.5"/>
  <path d="M60 8 C65 8, 78 14, 82 22 C86 30, 80 36, 68 36 C64 36, 62 34, 60 30" fill="none" stroke="#E7DEC8" stroke-width="1.5"/>
  <path d="M52 36 C48 32, 44 26, 42 20" fill="none" stroke="#9FD66A" stroke-width="0.5" opacity="0.6"/>
  <path d="M68 36 C72 32, 76 26, 78 20" fill="none" stroke="#9FD66A" stroke-width="0.5" opacity="0.6"/>
  <circle cx="60" cy="12" r="2" fill="#9FD66A"/>
  <path d="M58 10 C55 4, 50 2, 48 4" fill="none" stroke="#E7DEC8" stroke-width="0.8" opacity="0.6"/>
  <path d="M62 10 C65 4, 70 2, 72 4" fill="none" stroke="#E7DEC8" stroke-width="0.8" opacity="0.6"/>
</svg>
